<svg height="512" viewBox="0 0 512 512" width="512" xmlns="http://www.w3.org/2000/svg"><g id="BULINE"><circle cx="256" cy="256.05" fill="#3586cb" r="256"/></g><g id="Icons"><path d="m447.87 138.87v4.42a11.25 11.25 0 0 0 11.25 11.25h21a4.42 4.42 0 0 1 4.38 4.46v78.5a4.42 4.42 0 0 1 -4.42 4.41h-103.72a4.41 4.41 0 0 1 -4.41-4.41v-16.3a15.67 15.67 0 0 0 -15.67-15.66 15.66 15.66 0 0 0 -15.66 15.66v16.25a4.42 4.42 0 0 1 -4.42 4.41h-160.82a4.41 4.41 0 0 1 -4.41-4.41v-16.25a15.67 15.67 0 0 0 -15.67-15.66 15.66 15.66 0 0 0 -15.66 15.66v16.25a4.42 4.42 0 0 1 -4.42 4.41h-103.31a4.41 4.41 0 0 1 -4.41-4.41v-78.45a4.41 4.41 0 0 1 4.41-4.41h16.54a15.67 15.67 0 1 0 0-31.33h-16.54a4.41 4.41 0 0 1 -4.41-4.41v-6.87a4.41 4.41 0 0 1 4.41-4.41h448.17a4.42 4.42 0 0 1 4.42 4.41v6.87a4.42 4.42 0 0 1 -4.42 4.41h-16.55a15.66 15.66 0 0 0 -15.66 15.61z" fill="#00b564"/><path d="m208.71 241.86h-33.33a4.41 4.41 0 0 1 -4.41-4.41v-16.25a15.67 15.67 0 0 0 -15.67-15.66 15.66 15.66 0 0 0 -15.66 15.66v16.25a4.42 4.42 0 0 1 -4.42 4.41h-103.31a4.41 4.41 0 0 1 -4.41-4.41v-78.45a4.41 4.41 0 0 1 4.41-4.41h16.54a15.67 15.67 0 1 0 0-31.33h-16.54a4.41 4.41 0 0 1 -4.41-4.41v-6.87a4.41 4.41 0 0 1 4.41-4.41h124.83a272.65 272.65 0 0 0 51.97 134.29z" fill="#00a053"/><circle cx="462.8" cy="179.21" fill="#4acc97" r="11.99"/><circle cx="437.82" cy="179.21" fill="#4acc97" r="8.49"/><path d="m49.67 211.68a6.14 6.14 0 0 1 6.14-6.14h99.48a15.66 15.66 0 0 0 -15.66 15.66v16.25a4.42 4.42 0 0 1 -4.42 4.41h-85.54z" fill="#f7bb38"/><path d="m155.3 205.54h201a15.66 15.66 0 0 0 -15.66 15.66v16.25a4.42 4.42 0 0 1 -4.42 4.41h-160.84a4.41 4.41 0 0 1 -4.41-4.41v-16.25a15.67 15.67 0 0 0 -15.67-15.66z" fill="#f7bb38"/><path d="m462.33 211.68v30.18h-86a4.41 4.41 0 0 1 -4.41-4.41v-16.25a15.67 15.67 0 0 0 -15.67-15.66h99.91a6.14 6.14 0 0 1 6.17 6.14z" fill="#f7bb38"/><g fill="#e88032"><path d="m63 215.71h5.5a4.25 4.25 0 0 1 4.23 4.29v21.9a0 0 0 0 1 0 0h-14a0 0 0 0 1 0 0v-21.9a4.25 4.25 0 0 1 4.27-4.29z"/><path d="m90.23 215.71h5.5a4.25 4.25 0 0 1 4.27 4.29v21.9a0 0 0 0 1 0 0h-14a0 0 0 0 1 0 0v-21.9a4.25 4.25 0 0 1 4.23-4.29z"/><path d="m117.48 215.71h5.52a4.25 4.25 0 0 1 4.25 4.25v21.9a0 0 0 0 1 0 0h-14a0 0 0 0 1 0 0v-21.86a4.25 4.25 0 0 1 4.23-4.29z"/><path d="m198.53 215.71h5.47a4.25 4.25 0 0 1 4.25 4.25v21.9a0 0 0 0 1 0 0h-14a0 0 0 0 1 0 0v-21.86a4.25 4.25 0 0 1 4.28-4.29z"/><path d="m225.78 215.71h5.5a4.25 4.25 0 0 1 4.25 4.25v21.9a0 0 0 0 1 0 0h-14a0 0 0 0 1 0 0v-21.86a4.25 4.25 0 0 1 4.25-4.29z"/><path d="m253 215.71h5.5a4.25 4.25 0 0 1 4.25 4.25v21.9a0 0 0 0 1 0 0h-14a0 0 0 0 1 0 0v-21.86a4.25 4.25 0 0 1 4.25-4.29z"/><path d="m280.29 215.71h5.5a4.25 4.25 0 0 1 4.21 4.29v21.9a0 0 0 0 1 0 0h-14a0 0 0 0 1 0 0v-21.9a4.25 4.25 0 0 1 4.29-4.29z"/><path d="m307.54 215.71h5.46a4.25 4.25 0 0 1 4.25 4.25v21.9a0 0 0 0 1 0 0h-14a0 0 0 0 1 0 0v-21.86a4.25 4.25 0 0 1 4.29-4.29z"/><path d="m387.8 215.71h5.5a4.25 4.25 0 0 1 4.25 4.25v21.9a0 0 0 0 1 0 0h-14a0 0 0 0 1 0 0v-21.86a4.25 4.25 0 0 1 4.25-4.29z"/><path d="m415.06 215.71h5.5a4.25 4.25 0 0 1 4.25 4.25v21.9a0 0 0 0 1 0 0h-14a0 0 0 0 1 0 0v-21.86a4.25 4.25 0 0 1 4.25-4.29z"/><path d="m442.31 215.71h5.5a4.25 4.25 0 0 1 4.25 4.25v21.9a0 0 0 0 1 0 0h-14a0 0 0 0 1 0 0v-21.86a4.25 4.25 0 0 1 4.25-4.29z"/></g><rect fill="#4f4f74" height="61.33" rx="7.27" width="46.58" x="101.83" y="128.05"/><rect fill="#4f4f74" height="61.33" rx="7.27" width="46.58" x="167.16" y="128.05"/><rect fill="#4f4f74" height="61.33" rx="7.27" width="46.58" x="232.49" y="128.05"/><rect fill="#4f4f74" height="61.33" rx="7.27" width="46.58" x="297.83" y="128.05"/><rect fill="#4f4f74" height="61.33" rx="7.27" width="46.58" x="363.16" y="128.05"/><path d="m120.5 189.38h-11.4a7.27 7.27 0 0 1 -7.27-7.27v-46.8a7.27 7.27 0 0 1 7.27-7.31h11.4a7.28 7.28 0 0 0 -7.27 7.27v46.8a7.28 7.28 0 0 0 7.27 7.31z" fill="#3e436d"/><path d="m185.83 189.38h-11.4a7.27 7.27 0 0 1 -7.27-7.27v-46.8a7.27 7.27 0 0 1 7.27-7.27h11.4a7.28 7.28 0 0 0 -7.27 7.27v46.8a7.28 7.28 0 0 0 7.27 7.27z" fill="#3e436d"/><path d="m251.16 189.38h-11.4a7.27 7.27 0 0 1 -7.27-7.27v-46.8a7.27 7.27 0 0 1 7.27-7.27h11.4a7.28 7.28 0 0 0 -7.27 7.27v46.8a7.28 7.28 0 0 0 7.27 7.27z" fill="#3e436d"/><path d="m316.49 189.38h-11.4a7.27 7.27 0 0 1 -7.27-7.27v-46.8a7.27 7.27 0 0 1 7.27-7.27h11.4a7.28 7.28 0 0 0 -7.27 7.27v46.8a7.28 7.28 0 0 0 7.27 7.27z" fill="#3e436d"/><path d="m381.83 189.38h-11.4a7.27 7.27 0 0 1 -7.27-7.27v-46.8a7.27 7.27 0 0 1 7.27-7.27h11.4a7.28 7.28 0 0 0 -7.27 7.27v46.8a7.28 7.28 0 0 0 7.27 7.27z" fill="#3e436d"/><circle cx="133.23" cy="145.88" fill="#616184" r="8.67"/><circle cx="199.12" cy="145.88" fill="#616184" r="8.67"/><circle cx="265.01" cy="145.88" fill="#616184" r="8.67"/><circle cx="330.9" cy="145.88" fill="#616184" r="8.67"/><circle cx="396.79" cy="145.88" fill="#616184" r="8.67"/><path d="m447.87 300.54v4.46a11.25 11.25 0 0 0 11.25 11.25h21a4.42 4.42 0 0 1 4.42 4.41v78.5a4.42 4.42 0 0 1 -4.42 4.41h-103.76a4.41 4.41 0 0 1 -4.41-4.41v-16.29a15.67 15.67 0 0 0 -15.67-15.66 15.66 15.66 0 0 0 -15.66 15.66v16.25a4.42 4.42 0 0 1 -4.42 4.41h-160.82a4.41 4.41 0 0 1 -4.41-4.41v-16.25a15.67 15.67 0 0 0 -15.67-15.66 15.66 15.66 0 0 0 -15.66 15.66v16.25a4.42 4.42 0 0 1 -4.42 4.41h-103.31a4.41 4.41 0 0 1 -4.41-4.41v-78.5a4.41 4.41 0 0 1 4.41-4.41h16.54a15.67 15.67 0 1 0 0-31.33h-16.54a4.41 4.41 0 0 1 -4.41-4.41v-6.87a4.41 4.41 0 0 1 4.41-4.41h448.17a4.42 4.42 0 0 1 4.42 4.41v6.87a4.42 4.42 0 0 1 -4.42 4.41h-16.55a15.66 15.66 0 0 0 -15.66 15.66z" fill="#00b564"/><path d="m208.71 403.53h-33.33a4.41 4.41 0 0 1 -4.41-4.41v-16.25a15.67 15.67 0 0 0 -15.67-15.66 15.66 15.66 0 0 0 -15.66 15.66v16.25a4.42 4.42 0 0 1 -4.42 4.41h-103.31a4.41 4.41 0 0 1 -4.41-4.41v-78.5a4.41 4.41 0 0 1 4.41-4.41h16.54a15.67 15.67 0 1 0 0-31.33h-16.54a4.41 4.41 0 0 1 -4.41-4.41v-6.87a4.41 4.41 0 0 1 4.41-4.41h124.83a272.65 272.65 0 0 0 51.97 134.34z" fill="#00a053"/><circle cx="462.8" cy="340.88" fill="#4acc97" r="11.99"/><circle cx="437.82" cy="340.88" fill="#4acc97" r="8.49"/><path d="m49.67 373.35a6.14 6.14 0 0 1 6.14-6.14h99.48a15.66 15.66 0 0 0 -15.66 15.66v16.25a4.42 4.42 0 0 1 -4.42 4.41h-85.54z" fill="#f7bb38"/><path d="m155.3 367.21h201a15.66 15.66 0 0 0 -15.66 15.66v16.25a4.42 4.42 0 0 1 -4.42 4.41h-160.84a4.41 4.41 0 0 1 -4.41-4.41v-16.25a15.67 15.67 0 0 0 -15.67-15.66z" fill="#f7bb38"/><path d="m462.33 373.35v30.18h-86a4.41 4.41 0 0 1 -4.41-4.41v-16.25a15.67 15.67 0 0 0 -15.67-15.66h99.91a6.14 6.14 0 0 1 6.17 6.14z" fill="#f7bb38"/><path d="m63 377.38h5.5a4.25 4.25 0 0 1 4.25 4.25v21.9a0 0 0 0 1 0 0h-14a0 0 0 0 1 0 0v-21.9a4.25 4.25 0 0 1 4.25-4.25z" fill="#e88032"/><path d="m90.23 377.38h5.5a4.25 4.25 0 0 1 4.25 4.25v21.9a0 0 0 0 1 0 0h-13.98a0 0 0 0 1 0 0v-21.9a4.25 4.25 0 0 1 4.23-4.25z" fill="#e88032"/><path d="m117.48 377.38h5.52a4.25 4.25 0 0 1 4.25 4.25v21.9a0 0 0 0 1 0 0h-14a0 0 0 0 1 0 0v-21.9a4.25 4.25 0 0 1 4.23-4.25z" fill="#e88032"/><path d="m198.53 377.38h5.47a4.25 4.25 0 0 1 4.25 4.25v21.9a0 0 0 0 1 0 0h-14a0 0 0 0 1 0 0v-21.9a4.25 4.25 0 0 1 4.28-4.25z" fill="#e88032"/><path d="m225.78 377.38h5.5a4.25 4.25 0 0 1 4.25 4.25v21.9a0 0 0 0 1 0 0h-14a0 0 0 0 1 0 0v-21.9a4.25 4.25 0 0 1 4.25-4.25z" fill="#e88032"/><path d="m253 377.38h5.5a4.25 4.25 0 0 1 4.25 4.25v21.9a0 0 0 0 1 0 0h-14a0 0 0 0 1 0 0v-21.9a4.25 4.25 0 0 1 4.25-4.25z" fill="#e88032"/><path d="m280.29 377.38h5.5a4.25 4.25 0 0 1 4.25 4.25v21.9a0 0 0 0 1 0 0h-14.04a0 0 0 0 1 0 0v-21.9a4.25 4.25 0 0 1 4.29-4.25z" fill="#e88032"/><path d="m307.54 377.38h5.46a4.25 4.25 0 0 1 4.25 4.25v21.9a0 0 0 0 1 0 0h-14a0 0 0 0 1 0 0v-21.9a4.25 4.25 0 0 1 4.29-4.25z" fill="#e88032"/><path d="m387.8 377.38h5.5a4.25 4.25 0 0 1 4.25 4.25v21.9a0 0 0 0 1 0 0h-14a0 0 0 0 1 0 0v-21.9a4.25 4.25 0 0 1 4.25-4.25z" fill="#e88032"/><path d="m415.06 377.38h5.5a4.25 4.25 0 0 1 4.25 4.25v21.9a0 0 0 0 1 0 0h-14a0 0 0 0 1 0 0v-21.9a4.25 4.25 0 0 1 4.25-4.25z" fill="#e88032"/><path d="m442.31 377.38h5.5a4.25 4.25 0 0 1 4.25 4.25v21.9a0 0 0 0 1 0 0h-14a0 0 0 0 1 0 0v-21.9a4.25 4.25 0 0 1 4.25-4.25z" fill="#e88032"/><rect fill="#4f4f74" height="61.33" rx="7.27" width="46.58" x="101.83" y="289.71"/><rect fill="#4f4f74" height="61.33" rx="7.27" width="46.58" x="167.16" y="289.71"/><rect fill="#4f4f74" height="61.33" rx="7.27" width="46.58" x="232.49" y="289.71"/><rect fill="#4f4f74" height="61.33" rx="7.27" width="46.58" x="297.83" y="289.71"/><rect fill="#4f4f74" height="61.33" rx="7.27" width="46.58" x="363.16" y="289.71"/><path d="m120.5 351.05h-11.4a7.27 7.27 0 0 1 -7.27-7.27v-46.78a7.27 7.27 0 0 1 7.27-7.27h11.4a7.28 7.28 0 0 0 -7.27 7.27v46.8a7.28 7.28 0 0 0 7.27 7.25z" fill="#3e436d"/><path d="m185.83 351.05h-11.4a7.27 7.27 0 0 1 -7.27-7.27v-46.78a7.27 7.27 0 0 1 7.27-7.27h11.4a7.28 7.28 0 0 0 -7.27 7.27v46.8a7.28 7.28 0 0 0 7.27 7.25z" fill="#3e436d"/><path d="m251.16 351.05h-11.4a7.27 7.27 0 0 1 -7.27-7.27v-46.78a7.27 7.27 0 0 1 7.27-7.27h11.4a7.28 7.28 0 0 0 -7.27 7.27v46.8a7.28 7.28 0 0 0 7.27 7.25z" fill="#3e436d"/><path d="m316.49 351.05h-11.4a7.27 7.27 0 0 1 -7.27-7.27v-46.78a7.27 7.27 0 0 1 7.27-7.27h11.4a7.28 7.28 0 0 0 -7.27 7.27v46.8a7.28 7.28 0 0 0 7.27 7.25z" fill="#3e436d"/><path d="m381.83 351.05h-11.4a7.27 7.27 0 0 1 -7.27-7.27v-46.78a7.27 7.27 0 0 1 7.27-7.27h11.4a7.28 7.28 0 0 0 -7.27 7.27v46.8a7.28 7.28 0 0 0 7.27 7.25z" fill="#3e436d"/><circle cx="133.23" cy="307.55" fill="#616184" r="8.67"/><circle cx="199.12" cy="307.55" fill="#616184" r="8.67"/><circle cx="265.01" cy="307.55" fill="#616184" r="8.67"/><circle cx="330.9" cy="307.55" fill="#616184" r="8.67"/><circle cx="396.79" cy="307.55" fill="#616184" r="8.67"/></g></svg>